<mxfile host="app.diagrams.net" modified="2020-05-27T19:06:10.077Z" agent="5.0 (Macintosh; Intel Mac OS X 10_15_3) AppleWebKit/605.1.15 (KHTML, like Gecko) Version/13.0.5 Safari/605.1.15" etag="wqEiVIpNVTZXQZT6MJme" version="13.1.3" type="github">
  <diagram id="rhFtwO3-Js1VsmLFuwUs" name="Page-1">
    <mxGraphModel dx="2365" dy="2632" grid="1" gridSize="10" guides="1" tooltips="1" connect="1" arrows="1" fold="1" page="1" pageScale="1" pageWidth="827" pageHeight="1169" math="0" shadow="0">
      <root>
        <mxCell id="0" />
        <mxCell id="1" parent="0" />
        <mxCell id="pWobMGOmHtMoMN1nDM7m-1" value="" style="rounded=1;whiteSpace=wrap;html=1;" parent="1" vertex="1">
          <mxGeometry x="370" y="-1080" width="300" height="490" as="geometry" />
        </mxCell>
        <mxCell id="pWobMGOmHtMoMN1nDM7m-2" value="LOGO" style="rounded=0;whiteSpace=wrap;html=1;" parent="1" vertex="1">
          <mxGeometry x="460" y="-890" width="120" height="90" as="geometry" />
        </mxCell>
        <mxCell id="pWobMGOmHtMoMN1nDM7m-3" value="First Splash Screen&lt;br&gt;" style="text;html=1;strokeColor=none;fillColor=none;align=center;verticalAlign=middle;whiteSpace=wrap;rounded=0;" parent="1" vertex="1">
          <mxGeometry x="400" y="-1110" width="220" height="20" as="geometry" />
        </mxCell>
        <mxCell id="pWobMGOmHtMoMN1nDM7m-4" value="" style="rounded=1;whiteSpace=wrap;html=1;" parent="1" vertex="1">
          <mxGeometry x="750" y="-1080" width="300" height="490" as="geometry" />
        </mxCell>
        <mxCell id="pWobMGOmHtMoMN1nDM7m-6" value="LOGIN Screen&lt;br&gt;" style="text;html=1;strokeColor=none;fillColor=none;align=center;verticalAlign=middle;whiteSpace=wrap;rounded=0;" parent="1" vertex="1">
          <mxGeometry x="820" y="-1115" width="160" height="30" as="geometry" />
        </mxCell>
        <mxCell id="pWobMGOmHtMoMN1nDM7m-8" value="Email" style="rounded=0;whiteSpace=wrap;html=1;align=center;" parent="1" vertex="1">
          <mxGeometry x="800" y="-930" width="210" height="30" as="geometry" />
        </mxCell>
        <mxCell id="pWobMGOmHtMoMN1nDM7m-9" value="" style="rounded=0;whiteSpace=wrap;html=1;" parent="1" vertex="1">
          <mxGeometry x="800" y="-890" width="210" height="30" as="geometry" />
        </mxCell>
        <mxCell id="pWobMGOmHtMoMN1nDM7m-10" value="Password&lt;br&gt;" style="text;html=1;strokeColor=none;fillColor=none;align=center;verticalAlign=middle;whiteSpace=wrap;rounded=0;" parent="1" vertex="1">
          <mxGeometry x="880" y="-885" width="40" height="20" as="geometry" />
        </mxCell>
        <mxCell id="pWobMGOmHtMoMN1nDM7m-11" value="" style="endArrow=classic;html=1;exitX=0.75;exitY=0;exitDx=0;exitDy=0;entryX=0.067;entryY=0.02;entryDx=0;entryDy=0;entryPerimeter=0;" parent="1" source="pWobMGOmHtMoMN1nDM7m-1" target="pWobMGOmHtMoMN1nDM7m-4" edge="1">
          <mxGeometry width="50" height="50" relative="1" as="geometry">
            <mxPoint x="820" y="-800" as="sourcePoint" />
            <mxPoint x="748" y="-790" as="targetPoint" />
            <Array as="points">
              <mxPoint x="595" y="-1110" />
              <mxPoint x="770" y="-1110" />
            </Array>
          </mxGeometry>
        </mxCell>
        <mxCell id="pWobMGOmHtMoMN1nDM7m-12" value="LOGO" style="rounded=0;whiteSpace=wrap;html=1;" parent="1" vertex="1">
          <mxGeometry x="840" y="-1060" width="120" height="90" as="geometry" />
        </mxCell>
        <mxCell id="pWobMGOmHtMoMN1nDM7m-16" value="You Forgot Password?" style="text;html=1;strokeColor=none;fillColor=none;align=center;verticalAlign=middle;whiteSpace=wrap;rounded=0;fontStyle=1" parent="1" vertex="1">
          <mxGeometry x="880" y="-740" width="170" height="20" as="geometry" />
        </mxCell>
        <mxCell id="v58zFXJl1j6f3DH9xOJw-2" style="edgeStyle=orthogonalEdgeStyle;rounded=0;orthogonalLoop=1;jettySize=auto;html=1;exitX=0.5;exitY=1;exitDx=0;exitDy=0;entryX=0.003;entryY=0.144;entryDx=0;entryDy=0;entryPerimeter=0;endArrow=classic;endFill=1;" parent="1" source="pWobMGOmHtMoMN1nDM7m-17" target="v58zFXJl1j6f3DH9xOJw-1" edge="1">
          <mxGeometry relative="1" as="geometry" />
        </mxCell>
        <mxCell id="pWobMGOmHtMoMN1nDM7m-17" value="Dont Have Account?&lt;br&gt;&lt;font color=&quot;#0000ff&quot;&gt;Sign up&lt;/font&gt;" style="text;html=1;strokeColor=none;fillColor=none;align=center;verticalAlign=middle;whiteSpace=wrap;rounded=0;fontStyle=1" parent="1" vertex="1">
          <mxGeometry x="820" y="-670" width="170" height="20" as="geometry" />
        </mxCell>
        <mxCell id="v58zFXJl1j6f3DH9xOJw-31" style="edgeStyle=orthogonalEdgeStyle;rounded=0;orthogonalLoop=1;jettySize=auto;html=1;exitX=1;exitY=0.5;exitDx=0;exitDy=0;endArrow=classic;endFill=1;fontSize=15;entryX=0;entryY=0.119;entryDx=0;entryDy=0;entryPerimeter=0;" parent="1" source="pWobMGOmHtMoMN1nDM7m-18" target="v58zFXJl1j6f3DH9xOJw-32" edge="1">
          <mxGeometry relative="1" as="geometry">
            <mxPoint x="1099.9999999999995" y="-530" as="targetPoint" />
            <Array as="points">
              <mxPoint x="1110" y="-815" />
              <mxPoint x="1110" y="-492" />
            </Array>
          </mxGeometry>
        </mxCell>
        <mxCell id="pWobMGOmHtMoMN1nDM7m-18" value="Login" style="rounded=1;whiteSpace=wrap;html=1;align=center;" parent="1" vertex="1">
          <mxGeometry x="860" y="-830" width="90" height="30" as="geometry" />
        </mxCell>
        <mxCell id="pWobMGOmHtMoMN1nDM7m-19" style="edgeStyle=orthogonalEdgeStyle;rounded=0;orthogonalLoop=1;jettySize=auto;html=1;exitX=0.5;exitY=1;exitDx=0;exitDy=0;" parent="1" source="pWobMGOmHtMoMN1nDM7m-18" target="pWobMGOmHtMoMN1nDM7m-18" edge="1">
          <mxGeometry relative="1" as="geometry" />
        </mxCell>
        <mxCell id="pWobMGOmHtMoMN1nDM7m-20" value="" style="rounded=1;whiteSpace=wrap;html=1;" parent="1" vertex="1">
          <mxGeometry x="1130" y="-1085" width="300" height="490" as="geometry" />
        </mxCell>
        <mxCell id="pWobMGOmHtMoMN1nDM7m-21" value="Forgot Password" style="text;html=1;strokeColor=none;fillColor=none;align=center;verticalAlign=middle;whiteSpace=wrap;rounded=0;" parent="1" vertex="1">
          <mxGeometry x="1170" y="-1120" width="220" height="40" as="geometry" />
        </mxCell>
        <mxCell id="pWobMGOmHtMoMN1nDM7m-22" value="" style="endArrow=classic;html=1;entryX=-0.008;entryY=0.722;entryDx=0;entryDy=0;entryPerimeter=0;exitX=0.882;exitY=0.439;exitDx=0;exitDy=0;exitPerimeter=0;" parent="1" source="pWobMGOmHtMoMN1nDM7m-16" target="pWobMGOmHtMoMN1nDM7m-20" edge="1">
          <mxGeometry width="50" height="50" relative="1" as="geometry">
            <mxPoint x="880" y="-830" as="sourcePoint" />
            <mxPoint x="930" y="-880" as="targetPoint" />
          </mxGeometry>
        </mxCell>
        <mxCell id="pWobMGOmHtMoMN1nDM7m-23" value="Email" style="rounded=0;whiteSpace=wrap;html=1;align=center;" parent="1" vertex="1">
          <mxGeometry x="1180" y="-865" width="210" height="35" as="geometry" />
        </mxCell>
        <mxCell id="pWobMGOmHtMoMN1nDM7m-26" value="LOGO" style="rounded=0;whiteSpace=wrap;html=1;" parent="1" vertex="1">
          <mxGeometry x="1220" y="-1070" width="120" height="90" as="geometry" />
        </mxCell>
        <mxCell id="v58zFXJl1j6f3DH9xOJw-30" style="edgeStyle=orthogonalEdgeStyle;rounded=0;orthogonalLoop=1;jettySize=auto;html=1;exitX=0;exitY=0.5;exitDx=0;exitDy=0;entryX=1;entryY=0.874;entryDx=0;entryDy=0;entryPerimeter=0;endArrow=classic;endFill=1;fontSize=15;" parent="1" source="pWobMGOmHtMoMN1nDM7m-29" target="pWobMGOmHtMoMN1nDM7m-4" edge="1">
          <mxGeometry relative="1" as="geometry">
            <Array as="points">
              <mxPoint x="1090" y="-785" />
              <mxPoint x="1090" y="-652" />
            </Array>
          </mxGeometry>
        </mxCell>
        <mxCell id="pWobMGOmHtMoMN1nDM7m-29" value="Submit" style="rounded=1;whiteSpace=wrap;html=1;align=center;" parent="1" vertex="1">
          <mxGeometry x="1235" y="-800" width="90" height="30" as="geometry" />
        </mxCell>
        <mxCell id="pWobMGOmHtMoMN1nDM7m-30" value="" style="rounded=1;whiteSpace=wrap;html=1;" parent="1" vertex="1">
          <mxGeometry x="370" y="-501" width="310" height="891" as="geometry" />
        </mxCell>
        <mxCell id="pWobMGOmHtMoMN1nDM7m-31" value="First login" style="endArrow=classic;html=1;exitX=0;exitY=0.5;exitDx=0;exitDy=0;" parent="1" source="pWobMGOmHtMoMN1nDM7m-18" edge="1">
          <mxGeometry width="50" height="50" relative="1" as="geometry">
            <mxPoint x="850" y="-540" as="sourcePoint" />
            <mxPoint x="680" y="-408" as="targetPoint" />
            <Array as="points">
              <mxPoint x="730" y="-816" />
              <mxPoint x="720" y="-816" />
              <mxPoint x="700" y="-816" />
              <mxPoint x="700" y="-590" />
              <mxPoint x="700" y="-408" />
            </Array>
          </mxGeometry>
        </mxCell>
        <mxCell id="pWobMGOmHtMoMN1nDM7m-32" value="LOGO" style="rounded=0;whiteSpace=wrap;html=1;" parent="1" vertex="1">
          <mxGeometry x="460" y="-490" width="120" height="90" as="geometry" />
        </mxCell>
        <mxCell id="pWobMGOmHtMoMN1nDM7m-33" value="Continue Completing Info" style="text;html=1;strokeColor=none;fillColor=none;align=center;verticalAlign=middle;whiteSpace=wrap;rounded=0;" parent="1" vertex="1">
          <mxGeometry x="460" y="-530" width="160" height="20" as="geometry" />
        </mxCell>
        <mxCell id="pWobMGOmHtMoMN1nDM7m-34" value="Birthdate" style="rounded=0;whiteSpace=wrap;html=1;align=center;" parent="1" vertex="1">
          <mxGeometry x="420" y="-389" width="150" height="30" as="geometry" />
        </mxCell>
        <mxCell id="pWobMGOmHtMoMN1nDM7m-35" value="Gender" style="rounded=0;whiteSpace=wrap;html=1;align=center;" parent="1" vertex="1">
          <mxGeometry x="420" y="-309.5" width="150" height="30" as="geometry" />
        </mxCell>
        <mxCell id="pWobMGOmHtMoMN1nDM7m-36" value="Monthly Income" style="rounded=0;whiteSpace=wrap;html=1;align=center;" parent="1" vertex="1">
          <mxGeometry x="420" y="-270" width="150" height="30" as="geometry" />
        </mxCell>
        <mxCell id="pWobMGOmHtMoMN1nDM7m-37" value="No of Dependences" style="rounded=0;whiteSpace=wrap;html=1;align=center;" parent="1" vertex="1">
          <mxGeometry x="420" y="-230" width="150" height="30" as="geometry" />
        </mxCell>
        <mxCell id="pWobMGOmHtMoMN1nDM7m-41" value="Gender" style="text;html=1;strokeColor=none;fillColor=none;align=center;verticalAlign=middle;whiteSpace=wrap;rounded=0;" parent="1" vertex="1">
          <mxGeometry x="412.5" y="-170" width="40" height="20" as="geometry" />
        </mxCell>
        <mxCell id="pWobMGOmHtMoMN1nDM7m-54" value="Car Model" style="rounded=0;whiteSpace=wrap;html=1;align=center;" parent="1" vertex="1">
          <mxGeometry x="406" y="210" width="161" height="30" as="geometry" />
        </mxCell>
        <mxCell id="pWobMGOmHtMoMN1nDM7m-55" value="Job" style="rounded=0;whiteSpace=wrap;html=1;align=center;" parent="1" vertex="1">
          <mxGeometry x="420" y="-350" width="150" height="30" as="geometry" />
        </mxCell>
        <mxCell id="pWobMGOmHtMoMN1nDM7m-56" value="Height" style="rounded=0;whiteSpace=wrap;html=1;align=center;" parent="1" vertex="1">
          <mxGeometry x="407.5" y="249" width="161" height="30" as="geometry" />
        </mxCell>
        <mxCell id="pWobMGOmHtMoMN1nDM7m-57" value="Weight" style="rounded=0;whiteSpace=wrap;html=1;align=center;" parent="1" vertex="1">
          <mxGeometry x="407.5" y="290" width="161" height="30" as="geometry" />
        </mxCell>
        <mxCell id="pWobMGOmHtMoMN1nDM7m-59" value="Cut of Legs" style="text;html=1;strokeColor=none;fillColor=none;align=center;verticalAlign=middle;whiteSpace=wrap;rounded=0;" parent="1" vertex="1">
          <mxGeometry x="409" y="-110" width="70" height="20" as="geometry" />
        </mxCell>
        <mxCell id="pWobMGOmHtMoMN1nDM7m-62" value="Mobile Fees" style="shape=process;whiteSpace=wrap;html=1;backgroundOutline=1;align=center;" parent="1" vertex="1">
          <mxGeometry x="410" y="100" width="155" height="40" as="geometry" />
        </mxCell>
        <mxCell id="pWobMGOmHtMoMN1nDM7m-63" value="No of Cars" style="shape=process;whiteSpace=wrap;html=1;backgroundOutline=1;align=center;" parent="1" vertex="1">
          <mxGeometry x="409" y="50" width="155" height="40" as="geometry" />
        </mxCell>
        <mxCell id="pWobMGOmHtMoMN1nDM7m-68" value="Yes&lt;span style=&quot;color: rgba(0 , 0 , 0 , 0) ; font-family: monospace ; font-size: 0px&quot;&gt;%3CmxGraphModel%3E%3Croot%3E%3CmxCell%20id%3D%220%22%2F%3E%3CmxCell%20id%3D%221%22%20parent%3D%220%22%2F%3E%3CmxCell%20id%3D%222%22%20value%3D%22Mobile%20Fees%22%20style%3D%22shape%3Dprocess%3BwhiteSpace%3Dwrap%3Bhtml%3D1%3BbackgroundOutline%3D1%3Balign%3Dleft%3B%22%20vertex%3D%221%22%20parent%3D%221%22%3E%3CmxGeometry%20x%3D%22454%22%20y%3D%221100%22%20width%3D%22145%22%20height%3D%2240%22%20as%3D%22geometry%22%2F%3E%3C%2FmxCell%3E%3C%2Froot%3E%3C%2FmxGraphModel%3E&lt;/span&gt;" style="ellipse;shape=doubleEllipse;whiteSpace=wrap;html=1;aspect=fixed;align=center;" parent="1" vertex="1">
          <mxGeometry x="485" y="-120" width="40" height="40" as="geometry" />
        </mxCell>
        <mxCell id="pWobMGOmHtMoMN1nDM7m-69" value="NO" style="ellipse;shape=doubleEllipse;whiteSpace=wrap;html=1;aspect=fixed;align=center;" parent="1" vertex="1">
          <mxGeometry x="540" y="-120" width="40" height="40" as="geometry" />
        </mxCell>
        <mxCell id="pWobMGOmHtMoMN1nDM7m-70" value="Female" style="ellipse;shape=doubleEllipse;whiteSpace=wrap;html=1;aspect=fixed;align=center;" parent="1" vertex="1">
          <mxGeometry x="462.5" y="-187.5" width="55" height="55" as="geometry" />
        </mxCell>
        <mxCell id="pWobMGOmHtMoMN1nDM7m-71" value="Male" style="ellipse;shape=doubleEllipse;whiteSpace=wrap;html=1;aspect=fixed;align=center;" parent="1" vertex="1">
          <mxGeometry x="530" y="-187.5" width="55" height="55" as="geometry" />
        </mxCell>
        <mxCell id="pWobMGOmHtMoMN1nDM7m-72" value="Cut of arms" style="text;html=1;strokeColor=none;fillColor=none;align=center;verticalAlign=middle;whiteSpace=wrap;rounded=0;" parent="1" vertex="1">
          <mxGeometry x="405" y="-70" width="70" height="20" as="geometry" />
        </mxCell>
        <mxCell id="pWobMGOmHtMoMN1nDM7m-73" value="Yes&lt;span style=&quot;color: rgba(0 , 0 , 0 , 0) ; font-family: monospace ; font-size: 0px&quot;&gt;%3CmxGraphModel%3E%3Croot%3E%3CmxCell%20id%3D%220%22%2F%3E%3CmxCell%20id%3D%221%22%20parent%3D%220%22%2F%3E%3CmxCell%20id%3D%222%22%20value%3D%22Mobile%20Fees%22%20style%3D%22shape%3Dprocess%3BwhiteSpace%3Dwrap%3Bhtml%3D1%3BbackgroundOutline%3D1%3Balign%3Dleft%3B%22%20vertex%3D%221%22%20parent%3D%221%22%3E%3CmxGeometry%20x%3D%22454%22%20y%3D%221100%22%20width%3D%22145%22%20height%3D%2240%22%20as%3D%22geometry%22%2F%3E%3C%2FmxCell%3E%3C%2Froot%3E%3C%2FmxGraphModel%3E&lt;/span&gt;" style="ellipse;shape=doubleEllipse;whiteSpace=wrap;html=1;aspect=fixed;align=center;" parent="1" vertex="1">
          <mxGeometry x="485" y="-70" width="40" height="40" as="geometry" />
        </mxCell>
        <mxCell id="pWobMGOmHtMoMN1nDM7m-74" value="NO" style="ellipse;shape=doubleEllipse;whiteSpace=wrap;html=1;aspect=fixed;align=center;" parent="1" vertex="1">
          <mxGeometry x="540" y="-70" width="40" height="40" as="geometry" />
        </mxCell>
        <mxCell id="pWobMGOmHtMoMN1nDM7m-75" value="Yes&lt;span style=&quot;color: rgba(0 , 0 , 0 , 0) ; font-family: monospace ; font-size: 0px&quot;&gt;%3CmxGraphModel%3E%3Croot%3E%3CmxCell%20id%3D%220%22%2F%3E%3CmxCell%20id%3D%221%22%20parent%3D%220%22%2F%3E%3CmxCell%20id%3D%222%22%20value%3D%22Mobile%20Fees%22%20style%3D%22shape%3Dprocess%3BwhiteSpace%3Dwrap%3Bhtml%3D1%3BbackgroundOutline%3D1%3Balign%3Dleft%3B%22%20vertex%3D%221%22%20parent%3D%221%22%3E%3CmxGeometry%20x%3D%22454%22%20y%3D%221100%22%20width%3D%22145%22%20height%3D%2240%22%20as%3D%22geometry%22%2F%3E%3C%2FmxCell%3E%3C%2Froot%3E%3C%2FmxGraphModel%3E&lt;/span&gt;" style="ellipse;shape=doubleEllipse;whiteSpace=wrap;html=1;aspect=fixed;align=center;" parent="1" vertex="1">
          <mxGeometry x="490" y="-20" width="40" height="40" as="geometry" />
        </mxCell>
        <mxCell id="pWobMGOmHtMoMN1nDM7m-76" value="NO" style="ellipse;shape=doubleEllipse;whiteSpace=wrap;html=1;aspect=fixed;align=center;" parent="1" vertex="1">
          <mxGeometry x="540" y="-20" width="40" height="40" as="geometry" />
        </mxCell>
        <mxCell id="pWobMGOmHtMoMN1nDM7m-77" value="Chronic Disease" style="text;html=1;strokeColor=none;fillColor=none;align=center;verticalAlign=middle;whiteSpace=wrap;rounded=0;" parent="1" vertex="1">
          <mxGeometry x="390" y="-10" width="100" height="20" as="geometry" />
        </mxCell>
        <mxCell id="v58zFXJl1j6f3DH9xOJw-14" style="edgeStyle=orthogonalEdgeStyle;rounded=0;orthogonalLoop=1;jettySize=auto;html=1;exitX=1;exitY=0.5;exitDx=0;exitDy=0;entryX=-0.014;entryY=0.859;entryDx=0;entryDy=0;entryPerimeter=0;endArrow=classic;endFill=1;" parent="1" source="C3xpYV6c3PfCXHQgGOxq-1" target="pWobMGOmHtMoMN1nDM7m-4" edge="1">
          <mxGeometry relative="1" as="geometry">
            <Array as="points">
              <mxPoint x="720" y="340" />
              <mxPoint x="720" y="-659" />
            </Array>
          </mxGeometry>
        </mxCell>
        <mxCell id="C3xpYV6c3PfCXHQgGOxq-1" value="Submit" style="rounded=1;whiteSpace=wrap;html=1;" parent="1" vertex="1">
          <mxGeometry x="585" y="320" width="75" height="40" as="geometry" />
        </mxCell>
        <mxCell id="C3xpYV6c3PfCXHQgGOxq-2" value="Blood Type" style="shape=process;whiteSpace=wrap;html=1;backgroundOutline=1;align=center;" parent="1" vertex="1">
          <mxGeometry x="410.5" y="146" width="155" height="40" as="geometry" />
        </mxCell>
        <mxCell id="v58zFXJl1j6f3DH9xOJw-1" value="" style="rounded=1;whiteSpace=wrap;html=1;" parent="1" vertex="1">
          <mxGeometry x="755" y="-501" width="300" height="631" as="geometry" />
        </mxCell>
        <mxCell id="v58zFXJl1j6f3DH9xOJw-3" value="Register Screen" style="text;html=1;align=center;verticalAlign=middle;resizable=0;points=[];autosize=1;" parent="1" vertex="1">
          <mxGeometry x="874" y="-522" width="100" height="20" as="geometry" />
        </mxCell>
        <mxCell id="v58zFXJl1j6f3DH9xOJw-4" value="First Name" style="rounded=0;whiteSpace=wrap;html=1;" parent="1" vertex="1">
          <mxGeometry x="790" y="-367.5" width="220" height="40" as="geometry" />
        </mxCell>
        <mxCell id="v58zFXJl1j6f3DH9xOJw-5" value="Last Name" style="rounded=0;whiteSpace=wrap;html=1;" parent="1" vertex="1">
          <mxGeometry x="790" y="-318.5" width="220" height="40" as="geometry" />
        </mxCell>
        <mxCell id="v58zFXJl1j6f3DH9xOJw-6" value="Email" style="rounded=0;whiteSpace=wrap;html=1;" parent="1" vertex="1">
          <mxGeometry x="790" y="-263.5" width="220" height="40" as="geometry" />
        </mxCell>
        <mxCell id="v58zFXJl1j6f3DH9xOJw-7" value="Mobile" style="rounded=0;whiteSpace=wrap;html=1;" parent="1" vertex="1">
          <mxGeometry x="790" y="-208.5" width="220" height="40" as="geometry" />
        </mxCell>
        <mxCell id="v58zFXJl1j6f3DH9xOJw-8" value="Address" style="rounded=0;whiteSpace=wrap;html=1;" parent="1" vertex="1">
          <mxGeometry x="790" y="-153.5" width="220" height="40" as="geometry" />
        </mxCell>
        <mxCell id="v58zFXJl1j6f3DH9xOJw-9" value="Password" style="rounded=0;whiteSpace=wrap;html=1;" parent="1" vertex="1">
          <mxGeometry x="790" y="-100" width="220" height="40" as="geometry" />
        </mxCell>
        <mxCell id="v58zFXJl1j6f3DH9xOJw-10" value="Confirm Password" style="rounded=0;whiteSpace=wrap;html=1;" parent="1" vertex="1">
          <mxGeometry x="790" y="-43.5" width="220" height="40" as="geometry" />
        </mxCell>
        <mxCell id="v58zFXJl1j6f3DH9xOJw-11" value="LOGO" style="rounded=0;whiteSpace=wrap;html=1;" parent="1" vertex="1">
          <mxGeometry x="840" y="-479" width="120" height="90" as="geometry" />
        </mxCell>
        <mxCell id="v58zFXJl1j6f3DH9xOJw-13" style="edgeStyle=orthogonalEdgeStyle;rounded=0;orthogonalLoop=1;jettySize=auto;html=1;exitX=1;exitY=0.5;exitDx=0;exitDy=0;entryX=0.75;entryY=1;entryDx=0;entryDy=0;endArrow=classic;endFill=1;" parent="1" source="v58zFXJl1j6f3DH9xOJw-12" target="pWobMGOmHtMoMN1nDM7m-4" edge="1">
          <mxGeometry relative="1" as="geometry">
            <Array as="points">
              <mxPoint x="1080" y="80" />
              <mxPoint x="1080" y="-560" />
              <mxPoint x="975" y="-560" />
            </Array>
          </mxGeometry>
        </mxCell>
        <mxCell id="v58zFXJl1j6f3DH9xOJw-12" value="Submit" style="rounded=1;whiteSpace=wrap;html=1;" parent="1" vertex="1">
          <mxGeometry x="935" y="60" width="75" height="40" as="geometry" />
        </mxCell>
        <mxCell id="v58zFXJl1j6f3DH9xOJw-16" value="Guide" style="swimlane;align=center;fontSize=15;" parent="1" vertex="1">
          <mxGeometry x="40" y="-1120" width="250" height="480" as="geometry" />
        </mxCell>
        <mxCell id="v58zFXJl1j6f3DH9xOJw-18" value="LOGO" style="rounded=0;whiteSpace=wrap;html=1;" parent="v58zFXJl1j6f3DH9xOJw-16" vertex="1">
          <mxGeometry x="60" y="40" width="120" height="90" as="geometry" />
        </mxCell>
        <mxCell id="v58zFXJl1j6f3DH9xOJw-19" value="Logo Picture" style="text;html=1;align=center;verticalAlign=middle;resizable=0;points=[];autosize=1;fontSize=15;" parent="v58zFXJl1j6f3DH9xOJw-16" vertex="1">
          <mxGeometry x="70" y="130" width="100" height="20" as="geometry" />
        </mxCell>
        <mxCell id="v58zFXJl1j6f3DH9xOJw-20" value="" style="rounded=0;whiteSpace=wrap;html=1;fontSize=15;align=center;" parent="v58zFXJl1j6f3DH9xOJw-16" vertex="1">
          <mxGeometry x="65" y="170" width="120" height="25" as="geometry" />
        </mxCell>
        <mxCell id="v58zFXJl1j6f3DH9xOJw-21" value="Text Field" style="text;html=1;align=center;verticalAlign=middle;resizable=0;points=[];autosize=1;fontSize=15;" parent="v58zFXJl1j6f3DH9xOJw-16" vertex="1">
          <mxGeometry x="85" y="195" width="80" height="20" as="geometry" />
        </mxCell>
        <mxCell id="v58zFXJl1j6f3DH9xOJw-23" value="" style="rounded=1;whiteSpace=wrap;html=1;fontSize=15;align=center;" parent="v58zFXJl1j6f3DH9xOJw-16" vertex="1">
          <mxGeometry x="65" y="230" width="120" height="30" as="geometry" />
        </mxCell>
        <mxCell id="v58zFXJl1j6f3DH9xOJw-24" value="Button" style="text;html=1;align=center;verticalAlign=middle;resizable=0;points=[];autosize=1;fontSize=15;" parent="v58zFXJl1j6f3DH9xOJw-16" vertex="1">
          <mxGeometry x="95" y="260" width="60" height="20" as="geometry" />
        </mxCell>
        <mxCell id="v58zFXJl1j6f3DH9xOJw-25" value="" style="ellipse;shape=doubleEllipse;whiteSpace=wrap;html=1;aspect=fixed;align=center;" parent="v58zFXJl1j6f3DH9xOJw-16" vertex="1">
          <mxGeometry x="100" y="300" width="40" height="40" as="geometry" />
        </mxCell>
        <mxCell id="v58zFXJl1j6f3DH9xOJw-26" value="Radio Button" style="text;html=1;align=center;verticalAlign=middle;resizable=0;points=[];autosize=1;fontSize=15;" parent="v58zFXJl1j6f3DH9xOJw-16" vertex="1">
          <mxGeometry x="70" y="340" width="100" height="20" as="geometry" />
        </mxCell>
        <mxCell id="v58zFXJl1j6f3DH9xOJw-27" value="" style="shape=process;whiteSpace=wrap;html=1;backgroundOutline=1;fontSize=15;align=center;" parent="v58zFXJl1j6f3DH9xOJw-16" vertex="1">
          <mxGeometry x="60" y="380" width="120" height="40" as="geometry" />
        </mxCell>
        <mxCell id="v58zFXJl1j6f3DH9xOJw-28" value="Combobox" style="text;html=1;align=center;verticalAlign=middle;resizable=0;points=[];autosize=1;fontSize=15;" parent="v58zFXJl1j6f3DH9xOJw-16" vertex="1">
          <mxGeometry x="75" y="420" width="90" height="20" as="geometry" />
        </mxCell>
        <mxCell id="v58zFXJl1j6f3DH9xOJw-29" value="Enter Your registered Email so we could send you a reset email" style="text;html=1;strokeColor=none;fillColor=none;align=center;verticalAlign=middle;whiteSpace=wrap;rounded=0;fontSize=15;" parent="1" vertex="1">
          <mxGeometry x="1180" y="-945" width="210" height="65" as="geometry" />
        </mxCell>
        <mxCell id="v58zFXJl1j6f3DH9xOJw-32" value="" style="rounded=1;whiteSpace=wrap;html=1;" parent="1" vertex="1">
          <mxGeometry x="1130" y="-550" width="300" height="490" as="geometry" />
        </mxCell>
        <mxCell id="v58zFXJl1j6f3DH9xOJw-33" value="Home" style="text;html=1;strokeColor=none;fillColor=none;align=center;verticalAlign=middle;whiteSpace=wrap;rounded=0;fontSize=15;" parent="1" vertex="1">
          <mxGeometry x="1260" y="-570" width="40" height="20" as="geometry" />
        </mxCell>
        <mxCell id="v58zFXJl1j6f3DH9xOJw-34" value="" style="rounded=1;whiteSpace=wrap;html=1;fontSize=15;align=center;" parent="1" vertex="1">
          <mxGeometry x="1130" y="-130" width="300" height="70" as="geometry" />
        </mxCell>
        <mxCell id="v58zFXJl1j6f3DH9xOJw-53" style="edgeStyle=orthogonalEdgeStyle;rounded=0;orthogonalLoop=1;jettySize=auto;html=1;exitX=0.5;exitY=1;exitDx=0;exitDy=0;entryX=1;entryY=0.25;entryDx=0;entryDy=0;endArrow=classic;endFill=1;fontSize=15;" parent="1" source="v58zFXJl1j6f3DH9xOJw-36" target="v58zFXJl1j6f3DH9xOJw-47" edge="1">
          <mxGeometry relative="1" as="geometry">
            <Array as="points">
              <mxPoint x="1241" y="-30" />
              <mxPoint x="1090" y="-30" />
              <mxPoint x="1090" y="309" />
            </Array>
          </mxGeometry>
        </mxCell>
        <mxCell id="v58zFXJl1j6f3DH9xOJw-36" value="Barcode" style="rounded=1;whiteSpace=wrap;html=1;fontSize=15;align=center;" parent="1" vertex="1">
          <mxGeometry x="1205.5" y="-130" width="70" height="70" as="geometry" />
        </mxCell>
        <mxCell id="v58zFXJl1j6f3DH9xOJw-38" value="Home" style="rounded=1;whiteSpace=wrap;html=1;fontSize=15;align=center;" parent="1" vertex="1">
          <mxGeometry x="1130" y="-130" width="70" height="70" as="geometry" />
        </mxCell>
        <mxCell id="F7sfmkdwU6hLmO17Vx5Q-65" style="edgeStyle=orthogonalEdgeStyle;rounded=0;orthogonalLoop=1;jettySize=auto;html=1;exitX=0.5;exitY=1;exitDx=0;exitDy=0;entryX=0.25;entryY=0;entryDx=0;entryDy=0;" parent="1" source="v58zFXJl1j6f3DH9xOJw-39" target="F7sfmkdwU6hLmO17Vx5Q-43" edge="1">
          <mxGeometry relative="1" as="geometry">
            <Array as="points">
              <mxPoint x="1319" y="110" />
              <mxPoint x="1700" y="110" />
            </Array>
          </mxGeometry>
        </mxCell>
        <mxCell id="v58zFXJl1j6f3DH9xOJw-39" value="Profile" style="rounded=1;whiteSpace=wrap;html=1;fontSize=15;align=center;" parent="1" vertex="1">
          <mxGeometry x="1284" y="-130" width="70" height="70" as="geometry" />
        </mxCell>
        <mxCell id="F7sfmkdwU6hLmO17Vx5Q-42" style="edgeStyle=orthogonalEdgeStyle;rounded=0;orthogonalLoop=1;jettySize=auto;html=1;exitX=1;exitY=0.5;exitDx=0;exitDy=0;entryX=-0.035;entryY=0.654;entryDx=0;entryDy=0;entryPerimeter=0;" parent="1" source="v58zFXJl1j6f3DH9xOJw-40" target="F7sfmkdwU6hLmO17Vx5Q-29" edge="1">
          <mxGeometry relative="1" as="geometry" />
        </mxCell>
        <mxCell id="v58zFXJl1j6f3DH9xOJw-40" value="Report" style="rounded=1;whiteSpace=wrap;html=1;fontSize=15;align=center;" parent="1" vertex="1">
          <mxGeometry x="1360" y="-130" width="70" height="70" as="geometry" />
        </mxCell>
        <mxCell id="v58zFXJl1j6f3DH9xOJw-46" style="edgeStyle=orthogonalEdgeStyle;rounded=0;orthogonalLoop=1;jettySize=auto;html=1;exitX=1;exitY=0.5;exitDx=0;exitDy=0;entryX=0.5;entryY=1;entryDx=0;entryDy=0;endArrow=classic;endFill=1;fontSize=15;" parent="1" source="v58zFXJl1j6f3DH9xOJw-41" target="v58zFXJl1j6f3DH9xOJw-45" edge="1">
          <mxGeometry relative="1" as="geometry" />
        </mxCell>
        <mxCell id="v58zFXJl1j6f3DH9xOJw-41" value="Request an Ambulance" style="rounded=1;whiteSpace=wrap;html=1;fontSize=15;align=center;" parent="1" vertex="1">
          <mxGeometry x="1158" y="-390" width="254" height="49" as="geometry" />
        </mxCell>
        <mxCell id="F7sfmkdwU6hLmO17Vx5Q-23" style="edgeStyle=orthogonalEdgeStyle;rounded=0;orthogonalLoop=1;jettySize=auto;html=1;exitX=1;exitY=0.5;exitDx=0;exitDy=0;entryX=0.25;entryY=0;entryDx=0;entryDy=0;" parent="1" source="v58zFXJl1j6f3DH9xOJw-42" target="F7sfmkdwU6hLmO17Vx5Q-2" edge="1">
          <mxGeometry relative="1" as="geometry">
            <Array as="points">
              <mxPoint x="1460" y="-304" />
              <mxPoint x="1460" y="140" />
              <mxPoint x="1209" y="140" />
            </Array>
          </mxGeometry>
        </mxCell>
        <mxCell id="v58zFXJl1j6f3DH9xOJw-42" value="Medical History" style="rounded=1;whiteSpace=wrap;html=1;fontSize=15;align=center;" parent="1" vertex="1">
          <mxGeometry x="1158" y="-329" width="254" height="49" as="geometry" />
        </mxCell>
        <mxCell id="v58zFXJl1j6f3DH9xOJw-43" value="LOGO" style="rounded=0;whiteSpace=wrap;html=1;" parent="1" vertex="1">
          <mxGeometry x="1220" y="-522" width="120" height="90" as="geometry" />
        </mxCell>
        <mxCell id="v58zFXJl1j6f3DH9xOJw-45" value="&lt;h1&gt;Requesting Ambulance&lt;/h1&gt;&lt;p&gt;A request to the ambulance teams is submitted&lt;/p&gt;" style="text;html=1;spacing=5;spacingTop=-20;whiteSpace=wrap;overflow=hidden;rounded=0;fontSize=15;align=center;fillColor=#f5f5f5;strokeColor=#666666;fontColor=#333333;" parent="1" vertex="1">
          <mxGeometry x="1450" y="-744" width="190" height="160" as="geometry" />
        </mxCell>
        <mxCell id="v58zFXJl1j6f3DH9xOJw-47" value="" style="rounded=1;whiteSpace=wrap;html=1;" parent="1" vertex="1">
          <mxGeometry x="755" y="186" width="300" height="490" as="geometry" />
        </mxCell>
        <mxCell id="v58zFXJl1j6f3DH9xOJw-48" value="" style="rounded=1;whiteSpace=wrap;html=1;fontSize=15;align=center;" parent="1" vertex="1">
          <mxGeometry x="755" y="606" width="300" height="70" as="geometry" />
        </mxCell>
        <mxCell id="v58zFXJl1j6f3DH9xOJw-49" value="Barcode" style="rounded=1;whiteSpace=wrap;html=1;fontSize=15;align=center;" parent="1" vertex="1">
          <mxGeometry x="830.5" y="606" width="70" height="70" as="geometry" />
        </mxCell>
        <mxCell id="v58zFXJl1j6f3DH9xOJw-50" value="Home" style="rounded=1;whiteSpace=wrap;html=1;fontSize=15;align=center;" parent="1" vertex="1">
          <mxGeometry x="755" y="606" width="70" height="70" as="geometry" />
        </mxCell>
        <mxCell id="v58zFXJl1j6f3DH9xOJw-51" value="Profile" style="rounded=1;whiteSpace=wrap;html=1;fontSize=15;align=center;" parent="1" vertex="1">
          <mxGeometry x="909" y="606" width="70" height="70" as="geometry" />
        </mxCell>
        <mxCell id="v58zFXJl1j6f3DH9xOJw-52" value="Report" style="rounded=1;whiteSpace=wrap;html=1;fontSize=15;align=center;" parent="1" vertex="1">
          <mxGeometry x="985" y="606" width="70" height="70" as="geometry" />
        </mxCell>
        <mxCell id="v58zFXJl1j6f3DH9xOJw-54" value="Barcode" style="text;html=1;strokeColor=none;fillColor=none;align=center;verticalAlign=middle;whiteSpace=wrap;rounded=0;fontSize=15;" parent="1" vertex="1">
          <mxGeometry x="895" y="166" width="40" height="20" as="geometry" />
        </mxCell>
        <mxCell id="v58zFXJl1j6f3DH9xOJw-59" value="" style="shape=partialRectangle;whiteSpace=wrap;html=1;top=0;bottom=0;fillColor=none;fontSize=15;align=center;" parent="1" vertex="1">
          <mxGeometry x="845" y="310" width="120" height="60" as="geometry" />
        </mxCell>
        <mxCell id="v58zFXJl1j6f3DH9xOJw-60" value="" style="shape=partialRectangle;whiteSpace=wrap;html=1;top=0;bottom=0;fillColor=none;fontSize=15;align=center;" parent="1" vertex="1">
          <mxGeometry x="855" y="310" width="120" height="60" as="geometry" />
        </mxCell>
        <mxCell id="v58zFXJl1j6f3DH9xOJw-61" value="" style="shape=partialRectangle;whiteSpace=wrap;html=1;top=0;bottom=0;fillColor=none;fontSize=15;align=center;" parent="1" vertex="1">
          <mxGeometry x="865" y="310" width="120" height="60" as="geometry" />
        </mxCell>
        <mxCell id="v58zFXJl1j6f3DH9xOJw-62" value="" style="shape=partialRectangle;whiteSpace=wrap;html=1;top=0;bottom=0;fillColor=none;fontSize=15;align=center;" parent="1" vertex="1">
          <mxGeometry x="874" y="310" width="120" height="60" as="geometry" />
        </mxCell>
        <mxCell id="v58zFXJl1j6f3DH9xOJw-63" value="" style="shape=partialRectangle;whiteSpace=wrap;html=1;top=0;bottom=0;fillColor=none;fontSize=15;align=center;" parent="1" vertex="1">
          <mxGeometry x="884" y="310" width="120" height="60" as="geometry" />
        </mxCell>
        <mxCell id="v58zFXJl1j6f3DH9xOJw-64" value="" style="shape=partialRectangle;whiteSpace=wrap;html=1;top=0;bottom=0;fillColor=none;fontSize=15;align=center;" parent="1" vertex="1">
          <mxGeometry x="890" y="310" width="120" height="60" as="geometry" />
        </mxCell>
        <mxCell id="v58zFXJl1j6f3DH9xOJw-65" value="" style="shape=partialRectangle;whiteSpace=wrap;html=1;top=0;bottom=0;fillColor=none;fontSize=15;align=center;" parent="1" vertex="1">
          <mxGeometry x="830.5" y="310" width="120" height="60" as="geometry" />
        </mxCell>
        <mxCell id="v58zFXJl1j6f3DH9xOJw-66" value="" style="shape=partialRectangle;whiteSpace=wrap;html=1;top=0;bottom=0;fillColor=none;fontSize=15;align=center;" parent="1" vertex="1">
          <mxGeometry x="820" y="310" width="120" height="60" as="geometry" />
        </mxCell>
        <mxCell id="v58zFXJl1j6f3DH9xOJw-67" value="" style="shape=partialRectangle;whiteSpace=wrap;html=1;top=0;bottom=0;fillColor=none;fontSize=15;align=center;" parent="1" vertex="1">
          <mxGeometry x="805.5" y="310" width="120" height="60" as="geometry" />
        </mxCell>
        <mxCell id="v58zFXJl1j6f3DH9xOJw-68" value="" style="shape=partialRectangle;whiteSpace=wrap;html=1;top=0;bottom=0;fillColor=none;fontSize=15;align=center;" parent="1" vertex="1">
          <mxGeometry x="790" y="310" width="120" height="60" as="geometry" />
        </mxCell>
        <mxCell id="v58zFXJl1j6f3DH9xOJw-69" value="" style="shape=partialRectangle;whiteSpace=wrap;html=1;top=0;bottom=0;fillColor=none;fontSize=15;align=center;" parent="1" vertex="1">
          <mxGeometry x="900.5" y="310" width="120" height="60" as="geometry" />
        </mxCell>
        <mxCell id="F7sfmkdwU6hLmO17Vx5Q-1" style="edgeStyle=orthogonalEdgeStyle;rounded=0;orthogonalLoop=1;jettySize=auto;html=1;exitX=1;exitY=0.75;exitDx=0;exitDy=0;" parent="1" source="F7sfmkdwU6hLmO17Vx5Q-10" target="F7sfmkdwU6hLmO17Vx5Q-18" edge="1">
          <mxGeometry relative="1" as="geometry" />
        </mxCell>
        <mxCell id="F7sfmkdwU6hLmO17Vx5Q-2" value="" style="rounded=1;whiteSpace=wrap;html=1;" parent="1" vertex="1">
          <mxGeometry x="1158" y="166" width="205" height="390" as="geometry" />
        </mxCell>
        <mxCell id="F7sfmkdwU6hLmO17Vx5Q-3" value="Medical&amp;nbsp; Hictory" style="text;html=1;strokeColor=none;fillColor=none;align=center;verticalAlign=middle;whiteSpace=wrap;rounded=0;" parent="1" vertex="1">
          <mxGeometry x="1213" y="146" width="110" height="20" as="geometry" />
        </mxCell>
        <mxCell id="F7sfmkdwU6hLmO17Vx5Q-4" value="dd/mm/yy" style="text;html=1;strokeColor=none;fillColor=none;align=center;verticalAlign=middle;whiteSpace=wrap;rounded=0;" parent="1" vertex="1">
          <mxGeometry x="1183" y="232" width="85" height="20" as="geometry" />
        </mxCell>
        <mxCell id="F7sfmkdwU6hLmO17Vx5Q-5" value="&lt;font size=&quot;1&quot;&gt;&lt;b style=&quot;font-size: 17px&quot;&gt;title&lt;/b&gt;&lt;/font&gt;" style="text;html=1;strokeColor=none;fillColor=none;align=center;verticalAlign=middle;whiteSpace=wrap;rounded=0;strokeWidth=6;" parent="1" vertex="1">
          <mxGeometry x="1183" y="252" width="65" height="20" as="geometry" />
        </mxCell>
        <mxCell id="F7sfmkdwU6hLmO17Vx5Q-6" value="dd/mm/yy" style="text;html=1;strokeColor=none;fillColor=none;align=center;verticalAlign=middle;whiteSpace=wrap;rounded=0;" parent="1" vertex="1">
          <mxGeometry x="1183" y="272" width="85" height="20" as="geometry" />
        </mxCell>
        <mxCell id="F7sfmkdwU6hLmO17Vx5Q-7" value="dd/mm/yy" style="text;html=1;strokeColor=none;fillColor=none;align=center;verticalAlign=middle;whiteSpace=wrap;rounded=0;" parent="1" vertex="1">
          <mxGeometry x="1183" y="316" width="85" height="20" as="geometry" />
        </mxCell>
        <mxCell id="F7sfmkdwU6hLmO17Vx5Q-8" value="dd/mm/yy" style="text;html=1;strokeColor=none;fillColor=none;align=center;verticalAlign=middle;whiteSpace=wrap;rounded=0;" parent="1" vertex="1">
          <mxGeometry x="1183" y="366" width="85" height="20" as="geometry" />
        </mxCell>
        <mxCell id="F7sfmkdwU6hLmO17Vx5Q-9" value="dd/mm/yy" style="text;html=1;strokeColor=none;fillColor=none;align=center;verticalAlign=middle;whiteSpace=wrap;rounded=0;" parent="1" vertex="1">
          <mxGeometry x="1183" y="411" width="85" height="20" as="geometry" />
        </mxCell>
        <mxCell id="F7sfmkdwU6hLmO17Vx5Q-10" value="&lt;font size=&quot;1&quot;&gt;&lt;b style=&quot;font-size: 17px&quot;&gt;title&lt;/b&gt;&lt;/font&gt;" style="text;html=1;strokeColor=none;fillColor=none;align=center;verticalAlign=middle;whiteSpace=wrap;rounded=0;strokeWidth=6;" parent="1" vertex="1">
          <mxGeometry x="1183" y="212" width="65" height="20" as="geometry" />
        </mxCell>
        <mxCell id="F7sfmkdwU6hLmO17Vx5Q-11" value="&lt;font size=&quot;1&quot;&gt;&lt;b style=&quot;font-size: 17px&quot;&gt;title&lt;/b&gt;&lt;/font&gt;" style="text;html=1;strokeColor=none;fillColor=none;align=center;verticalAlign=middle;whiteSpace=wrap;rounded=0;strokeWidth=6;" parent="1" vertex="1">
          <mxGeometry x="1183" y="296" width="65" height="20" as="geometry" />
        </mxCell>
        <mxCell id="F7sfmkdwU6hLmO17Vx5Q-12" value="&lt;font size=&quot;1&quot;&gt;&lt;b style=&quot;font-size: 17px&quot;&gt;title&lt;/b&gt;&lt;/font&gt;" style="text;html=1;strokeColor=none;fillColor=none;align=center;verticalAlign=middle;whiteSpace=wrap;rounded=0;strokeWidth=6;" parent="1" vertex="1">
          <mxGeometry x="1183" y="341" width="65" height="20" as="geometry" />
        </mxCell>
        <mxCell id="F7sfmkdwU6hLmO17Vx5Q-13" value="&lt;font size=&quot;1&quot;&gt;&lt;b style=&quot;font-size: 17px&quot;&gt;title&lt;/b&gt;&lt;/font&gt;" style="text;html=1;strokeColor=none;fillColor=none;align=center;verticalAlign=middle;whiteSpace=wrap;rounded=0;strokeWidth=6;" parent="1" vertex="1">
          <mxGeometry x="1183" y="391" width="65" height="20" as="geometry" />
        </mxCell>
        <mxCell id="F7sfmkdwU6hLmO17Vx5Q-14" value="dd/mm/yy" style="text;html=1;strokeColor=none;fillColor=none;align=center;verticalAlign=middle;whiteSpace=wrap;rounded=0;" parent="1" vertex="1">
          <mxGeometry x="1183" y="456" width="85" height="15" as="geometry" />
        </mxCell>
        <mxCell id="F7sfmkdwU6hLmO17Vx5Q-15" value="&lt;font size=&quot;1&quot;&gt;&lt;b style=&quot;font-size: 17px&quot;&gt;title&lt;/b&gt;&lt;/font&gt;" style="text;html=1;strokeColor=none;fillColor=none;align=center;verticalAlign=middle;whiteSpace=wrap;rounded=0;strokeWidth=6;" parent="1" vertex="1">
          <mxGeometry x="1183" y="431" width="65" height="20" as="geometry" />
        </mxCell>
        <mxCell id="F7sfmkdwU6hLmO17Vx5Q-16" value="dd/mm/yy" style="text;html=1;strokeColor=none;fillColor=none;align=center;verticalAlign=middle;whiteSpace=wrap;rounded=0;" parent="1" vertex="1">
          <mxGeometry x="1183" y="496" width="85" height="20" as="geometry" />
        </mxCell>
        <mxCell id="F7sfmkdwU6hLmO17Vx5Q-17" value="&lt;font size=&quot;1&quot;&gt;&lt;b style=&quot;font-size: 17px&quot;&gt;title&lt;/b&gt;&lt;/font&gt;" style="text;html=1;strokeColor=none;fillColor=none;align=center;verticalAlign=middle;whiteSpace=wrap;rounded=0;strokeWidth=6;" parent="1" vertex="1">
          <mxGeometry x="1183" y="476" width="65" height="20" as="geometry" />
        </mxCell>
        <mxCell id="F7sfmkdwU6hLmO17Vx5Q-18" value="" style="rounded=1;whiteSpace=wrap;html=1;" parent="1" vertex="1">
          <mxGeometry x="1403" y="166" width="205" height="390" as="geometry" />
        </mxCell>
        <mxCell id="F7sfmkdwU6hLmO17Vx5Q-19" value="Medical&amp;nbsp; Data" style="text;html=1;strokeColor=none;fillColor=none;align=center;verticalAlign=middle;whiteSpace=wrap;rounded=0;" parent="1" vertex="1">
          <mxGeometry x="1450.5" y="146" width="110" height="20" as="geometry" />
        </mxCell>
        <mxCell id="F7sfmkdwU6hLmO17Vx5Q-20" value="&lt;font size=&quot;1&quot;&gt;&lt;b style=&quot;font-size: 17px&quot;&gt;title&lt;/b&gt;&lt;/font&gt;" style="text;html=1;strokeColor=none;fillColor=none;align=center;verticalAlign=middle;whiteSpace=wrap;rounded=0;strokeWidth=6;" parent="1" vertex="1">
          <mxGeometry x="1423" y="181" width="65" height="20" as="geometry" />
        </mxCell>
        <mxCell id="F7sfmkdwU6hLmO17Vx5Q-21" value="dd/mm/yy" style="text;html=1;strokeColor=none;fillColor=none;align=center;verticalAlign=middle;whiteSpace=wrap;rounded=0;" parent="1" vertex="1">
          <mxGeometry x="1513" y="181" width="85" height="20" as="geometry" />
        </mxCell>
        <mxCell id="F7sfmkdwU6hLmO17Vx5Q-22" value="&lt;h1&gt;Prescription&lt;/h1&gt;&lt;h1&gt;&lt;span style=&quot;font-size: 12px ; font-weight: normal&quot;&gt;Lorem ipsum dolor sit amet, consectetur adipisicing elit, sed do eiusmod tempor incididunt ut labore et dolore magna aliqua.&lt;/span&gt;&lt;br&gt;&lt;/h1&gt;" style="text;html=1;strokeColor=none;fillColor=none;spacing=5;spacingTop=-20;whiteSpace=wrap;overflow=hidden;rounded=0;" parent="1" vertex="1">
          <mxGeometry x="1412" y="344" width="190" height="174" as="geometry" />
        </mxCell>
        <mxCell id="F7sfmkdwU6hLmO17Vx5Q-26" style="edgeStyle=orthogonalEdgeStyle;rounded=0;orthogonalLoop=1;jettySize=auto;html=1;exitX=0;exitY=0.5;exitDx=0;exitDy=0;entryX=0;entryY=0.75;entryDx=0;entryDy=0;" parent="1" source="F7sfmkdwU6hLmO17Vx5Q-25" target="v58zFXJl1j6f3DH9xOJw-32" edge="1">
          <mxGeometry relative="1" as="geometry">
            <Array as="points">
              <mxPoint x="1110" y="186" />
              <mxPoint x="1110" y="-182" />
            </Array>
          </mxGeometry>
        </mxCell>
        <mxCell id="F7sfmkdwU6hLmO17Vx5Q-25" value="Back" style="rounded=1;whiteSpace=wrap;html=1;" parent="1" vertex="1">
          <mxGeometry x="1158" y="170" width="42" height="31" as="geometry" />
        </mxCell>
        <mxCell id="F7sfmkdwU6hLmO17Vx5Q-27" value="" style="rounded=1;whiteSpace=wrap;html=1;" parent="1" vertex="1">
          <mxGeometry x="1608" y="-309.5" width="205" height="390" as="geometry" />
        </mxCell>
        <mxCell id="F7sfmkdwU6hLmO17Vx5Q-28" value="&lt;h1&gt;Report&lt;/h1&gt;&lt;p&gt;&lt;br&gt;&lt;/p&gt;" style="text;html=1;strokeColor=none;fillColor=none;spacing=5;spacingTop=-20;whiteSpace=wrap;overflow=hidden;rounded=0;" parent="1" vertex="1">
          <mxGeometry x="1615.5" y="-289.5" width="190" height="120" as="geometry" />
        </mxCell>
        <mxCell id="F7sfmkdwU6hLmO17Vx5Q-29" value="" style="rounded=0;whiteSpace=wrap;html=1;strokeWidth=1;fillColor=#FFFFFF;strokeColor=#000000;" parent="1" vertex="1">
          <mxGeometry x="1613" y="-219.5" width="192.5" height="190" as="geometry" />
        </mxCell>
        <mxCell id="F7sfmkdwU6hLmO17Vx5Q-30" value="&lt;!--StartFragment--&gt;&lt;br style=&quot;font-family: Helvetica; font-size: 12px; font-style: normal; font-variant-ligatures: normal; font-variant-caps: normal; font-weight: 400; letter-spacing: normal; orphans: 2; text-align: center; text-indent: 0px; text-transform: none; widows: 2; word-spacing: 0px; -webkit-text-stroke-width: 0px; background-color: rgb(248, 249, 250); text-decoration-style: initial; text-decoration-color: initial;&quot;&gt;&lt;br style=&quot;font-family: Helvetica; font-size: 12px; font-style: normal; font-variant-ligatures: normal; font-variant-caps: normal; font-weight: 400; letter-spacing: normal; orphans: 2; text-align: center; text-indent: 0px; text-transform: none; widows: 2; word-spacing: 0px; -webkit-text-stroke-width: 0px; background-color: rgb(248, 249, 250); text-decoration-style: initial; text-decoration-color: initial;&quot;&gt;&lt;span style=&quot;font-size: 12px; font-style: normal; font-variant-ligatures: normal; font-variant-caps: normal; font-weight: 400; letter-spacing: normal; orphans: 2; text-indent: 0px; text-transform: none; widows: 2; word-spacing: 0px; -webkit-text-stroke-width: 0px; text-decoration-style: initial; text-decoration-color: initial; font-family: helvetica; text-align: left; background-color: rgb(248, 249, 250); float: none; display: inline;&quot;&gt;Give me some text.&lt;/span&gt;&lt;br style=&quot;font-family: Helvetica; font-size: 12px; font-style: normal; font-variant-ligatures: normal; font-variant-caps: normal; font-weight: 400; letter-spacing: normal; orphans: 2; text-align: center; text-indent: 0px; text-transform: none; widows: 2; word-spacing: 0px; -webkit-text-stroke-width: 0px; background-color: rgb(248, 249, 250); text-decoration-style: initial; text-decoration-color: initial;&quot;&gt;&lt;!--EndFragment--&gt;" style="text;whiteSpace=wrap;html=1;" parent="1" vertex="1">
          <mxGeometry x="1615.5" y="-239.5" width="130" height="60" as="geometry" />
        </mxCell>
        <mxCell id="F7sfmkdwU6hLmO17Vx5Q-74" style="edgeStyle=orthogonalEdgeStyle;rounded=0;orthogonalLoop=1;jettySize=auto;html=1;exitX=1;exitY=0.5;exitDx=0;exitDy=0;entryX=0.25;entryY=1;entryDx=0;entryDy=0;fontSize=11;" parent="1" source="F7sfmkdwU6hLmO17Vx5Q-31" target="F7sfmkdwU6hLmO17Vx5Q-73" edge="1">
          <mxGeometry relative="1" as="geometry">
            <Array as="points">
              <mxPoint x="1830" />
              <mxPoint x="1830" y="-70" />
              <mxPoint x="1889" y="-70" />
            </Array>
          </mxGeometry>
        </mxCell>
        <mxCell id="F7sfmkdwU6hLmO17Vx5Q-31" value="submit" style="rounded=1;whiteSpace=wrap;html=1;" parent="1" vertex="1">
          <mxGeometry x="1665.5" y="-15" width="90" height="30" as="geometry" />
        </mxCell>
        <mxCell id="F7sfmkdwU6hLmO17Vx5Q-37" value="" style="group;fontSize=11;" parent="1" vertex="1" connectable="0">
          <mxGeometry x="1598" y="100" width="300" height="70" as="geometry" />
        </mxCell>
        <mxCell id="F7sfmkdwU6hLmO17Vx5Q-41" value="" style="group" parent="F7sfmkdwU6hLmO17Vx5Q-37" vertex="1" connectable="0">
          <mxGeometry x="11.5" y="-66.63" width="202" height="47.13" as="geometry" />
        </mxCell>
        <mxCell id="F7sfmkdwU6hLmO17Vx5Q-40" value="" style="group" parent="F7sfmkdwU6hLmO17Vx5Q-41" vertex="1" connectable="0">
          <mxGeometry width="202" height="47.13" as="geometry" />
        </mxCell>
        <mxCell id="F7sfmkdwU6hLmO17Vx5Q-38" value="" style="group" parent="F7sfmkdwU6hLmO17Vx5Q-40" vertex="1" connectable="0">
          <mxGeometry width="202" height="47.13" as="geometry" />
        </mxCell>
        <mxCell id="F7sfmkdwU6hLmO17Vx5Q-32" value="" style="rounded=1;whiteSpace=wrap;html=1;fontSize=15;align=center;" parent="F7sfmkdwU6hLmO17Vx5Q-38" vertex="1">
          <mxGeometry width="202" height="47.13" as="geometry" />
        </mxCell>
        <mxCell id="F7sfmkdwU6hLmO17Vx5Q-33" value="Barcode" style="rounded=1;whiteSpace=wrap;html=1;fontSize=11;align=center;" parent="F7sfmkdwU6hLmO17Vx5Q-38" vertex="1">
          <mxGeometry x="50.83666666666667" width="47.13333333333333" height="47.13" as="geometry" />
        </mxCell>
        <mxCell id="F7sfmkdwU6hLmO17Vx5Q-34" value="Home" style="rounded=1;whiteSpace=wrap;html=1;fontSize=11;align=center;" parent="F7sfmkdwU6hLmO17Vx5Q-38" vertex="1">
          <mxGeometry width="47.13333333333333" height="47.13" as="geometry" />
        </mxCell>
        <mxCell id="F7sfmkdwU6hLmO17Vx5Q-35" value="Profile" style="rounded=1;whiteSpace=wrap;html=1;fontSize=11;align=center;" parent="F7sfmkdwU6hLmO17Vx5Q-38" vertex="1">
          <mxGeometry x="103.69333333333334" width="47.13333333333333" height="47.13" as="geometry" />
        </mxCell>
        <mxCell id="F7sfmkdwU6hLmO17Vx5Q-36" value="Report" style="rounded=1;whiteSpace=wrap;html=1;fontSize=11;align=center;" parent="F7sfmkdwU6hLmO17Vx5Q-38" vertex="1">
          <mxGeometry x="154.86666666666667" width="47.13333333333333" height="47.13" as="geometry" />
        </mxCell>
        <mxCell id="F7sfmkdwU6hLmO17Vx5Q-43" value="" style="rounded=1;whiteSpace=wrap;html=1;" parent="1" vertex="1">
          <mxGeometry x="1640" y="166" width="240" height="520" as="geometry" />
        </mxCell>
        <mxCell id="F7sfmkdwU6hLmO17Vx5Q-45" value="first Name" style="rounded=0;whiteSpace=wrap;html=1;" parent="1" vertex="1">
          <mxGeometry x="1680" y="227" width="160" height="30" as="geometry" />
        </mxCell>
        <mxCell id="F7sfmkdwU6hLmO17Vx5Q-46" value="last Name" style="rounded=0;whiteSpace=wrap;html=1;" parent="1" vertex="1">
          <mxGeometry x="1681" y="267" width="160" height="30" as="geometry" />
        </mxCell>
        <mxCell id="F7sfmkdwU6hLmO17Vx5Q-47" value="Mobile Phone" style="rounded=0;whiteSpace=wrap;html=1;" parent="1" vertex="1">
          <mxGeometry x="1681" y="306" width="160" height="30" as="geometry" />
        </mxCell>
        <mxCell id="F7sfmkdwU6hLmO17Vx5Q-48" value="Email" style="rounded=0;whiteSpace=wrap;html=1;" parent="1" vertex="1">
          <mxGeometry x="1679" y="346" width="160" height="30" as="geometry" />
        </mxCell>
        <mxCell id="F7sfmkdwU6hLmO17Vx5Q-49" value="Address" style="rounded=0;whiteSpace=wrap;html=1;" parent="1" vertex="1">
          <mxGeometry x="1681" y="386" width="160" height="30" as="geometry" />
        </mxCell>
        <mxCell id="F7sfmkdwU6hLmO17Vx5Q-50" value="Birth Date" style="rounded=0;whiteSpace=wrap;html=1;" parent="1" vertex="1">
          <mxGeometry x="1679" y="426" width="160" height="30" as="geometry" />
        </mxCell>
        <mxCell id="F7sfmkdwU6hLmO17Vx5Q-51" value="Gender" style="rounded=0;whiteSpace=wrap;html=1;" parent="1" vertex="1">
          <mxGeometry x="1680" y="466" width="160" height="30" as="geometry" />
        </mxCell>
        <mxCell id="F7sfmkdwU6hLmO17Vx5Q-52" value="job" style="rounded=0;whiteSpace=wrap;html=1;" parent="1" vertex="1">
          <mxGeometry x="1681" y="510" width="160" height="30" as="geometry" />
        </mxCell>
        <mxCell id="F7sfmkdwU6hLmO17Vx5Q-53" value="Password" style="rounded=0;whiteSpace=wrap;html=1;" parent="1" vertex="1">
          <mxGeometry x="1681" y="556" width="160" height="30" as="geometry" />
        </mxCell>
        <mxCell id="F7sfmkdwU6hLmO17Vx5Q-72" style="edgeStyle=orthogonalEdgeStyle;rounded=0;orthogonalLoop=1;jettySize=auto;html=1;exitX=1;exitY=0.5;exitDx=0;exitDy=0;entryX=0.5;entryY=1;entryDx=0;entryDy=0;" parent="1" source="F7sfmkdwU6hLmO17Vx5Q-54" target="F7sfmkdwU6hLmO17Vx5Q-71" edge="1">
          <mxGeometry relative="1" as="geometry" />
        </mxCell>
        <mxCell id="F7sfmkdwU6hLmO17Vx5Q-54" value="Edit" style="rounded=1;whiteSpace=wrap;html=1;" parent="1" vertex="1">
          <mxGeometry x="1826" y="166" width="54" height="30" as="geometry" />
        </mxCell>
        <mxCell id="F7sfmkdwU6hLmO17Vx5Q-55" value="edit profile" style="text;html=1;strokeColor=none;fillColor=none;align=center;verticalAlign=middle;whiteSpace=wrap;rounded=0;" parent="1" vertex="1">
          <mxGeometry x="1724" y="146" width="70" height="20" as="geometry" />
        </mxCell>
        <mxCell id="F7sfmkdwU6hLmO17Vx5Q-56" value="" style="group" parent="1" vertex="1" connectable="0">
          <mxGeometry x="1620" y="730" width="370" height="86.33" as="geometry" />
        </mxCell>
        <mxCell id="F7sfmkdwU6hLmO17Vx5Q-57" value="" style="group" parent="F7sfmkdwU6hLmO17Vx5Q-56" vertex="1" connectable="0">
          <mxGeometry x="14.183333333333334" y="-82.17382714285714" width="249.13333333333335" height="58.12475571428572" as="geometry" />
        </mxCell>
        <mxCell id="F7sfmkdwU6hLmO17Vx5Q-58" value="" style="group" parent="F7sfmkdwU6hLmO17Vx5Q-57" vertex="1" connectable="0">
          <mxGeometry width="249.13333333333335" height="58.12475571428572" as="geometry" />
        </mxCell>
        <mxCell id="F7sfmkdwU6hLmO17Vx5Q-59" value="" style="group" parent="F7sfmkdwU6hLmO17Vx5Q-58" vertex="1" connectable="0">
          <mxGeometry width="249.13333333333335" height="58.12475571428572" as="geometry" />
        </mxCell>
        <mxCell id="F7sfmkdwU6hLmO17Vx5Q-60" value="" style="rounded=1;whiteSpace=wrap;html=1;fontSize=15;align=center;" parent="F7sfmkdwU6hLmO17Vx5Q-59" vertex="1">
          <mxGeometry width="249.13333333333335" height="58.12475571428572" as="geometry" />
        </mxCell>
        <mxCell id="F7sfmkdwU6hLmO17Vx5Q-61" value="Barcode" style="rounded=1;whiteSpace=wrap;html=1;fontSize=15;align=center;" parent="F7sfmkdwU6hLmO17Vx5Q-59" vertex="1">
          <mxGeometry x="62.698555555555565" width="58.13111111111111" height="58.12475571428572" as="geometry" />
        </mxCell>
        <mxCell id="F7sfmkdwU6hLmO17Vx5Q-62" value="Home" style="rounded=1;whiteSpace=wrap;html=1;fontSize=15;align=center;" parent="F7sfmkdwU6hLmO17Vx5Q-59" vertex="1">
          <mxGeometry width="58.13111111111111" height="58.12475571428572" as="geometry" />
        </mxCell>
        <mxCell id="F7sfmkdwU6hLmO17Vx5Q-63" value="Profile" style="rounded=1;whiteSpace=wrap;html=1;fontSize=15;align=center;" parent="F7sfmkdwU6hLmO17Vx5Q-59" vertex="1">
          <mxGeometry x="127.88844444444446" width="58.13111111111111" height="58.12475571428572" as="geometry" />
        </mxCell>
        <mxCell id="F7sfmkdwU6hLmO17Vx5Q-64" value="Report" style="rounded=1;whiteSpace=wrap;html=1;fontSize=15;align=center;" parent="F7sfmkdwU6hLmO17Vx5Q-59" vertex="1">
          <mxGeometry x="191.00222222222223" width="58.13111111111111" height="58.12475571428572" as="geometry" />
        </mxCell>
        <mxCell id="F7sfmkdwU6hLmO17Vx5Q-66" value="" style="edgeStyle=orthogonalEdgeStyle;rounded=0;orthogonalLoop=1;jettySize=auto;html=1;exitX=1;exitY=0.5;exitDx=0;exitDy=0;" parent="1" source="F7sfmkdwU6hLmO17Vx5Q-10" target="F7sfmkdwU6hLmO17Vx5Q-18" edge="1">
          <mxGeometry relative="1" as="geometry" />
        </mxCell>
        <mxCell id="F7sfmkdwU6hLmO17Vx5Q-67" value="Dr Name" style="text;html=1;strokeColor=none;fillColor=none;align=center;verticalAlign=middle;whiteSpace=wrap;rounded=0;" parent="1" vertex="1">
          <mxGeometry x="1423" y="241" width="60" height="20" as="geometry" />
        </mxCell>
        <mxCell id="F7sfmkdwU6hLmO17Vx5Q-68" value="Dr Phone" style="text;html=1;strokeColor=none;fillColor=none;align=center;verticalAlign=middle;whiteSpace=wrap;rounded=0;" parent="1" vertex="1">
          <mxGeometry x="1503" y="241" width="60" height="20" as="geometry" />
        </mxCell>
        <mxCell id="F7sfmkdwU6hLmO17Vx5Q-69" value="Dr Email" style="text;html=1;strokeColor=none;fillColor=none;align=center;verticalAlign=middle;whiteSpace=wrap;rounded=0;" parent="1" vertex="1">
          <mxGeometry x="1433" y="272" width="130" height="20" as="geometry" />
        </mxCell>
        <mxCell id="F7sfmkdwU6hLmO17Vx5Q-70" value="Place Name" style="text;html=1;strokeColor=none;fillColor=none;align=center;verticalAlign=middle;whiteSpace=wrap;rounded=0;" parent="1" vertex="1">
          <mxGeometry x="1423" y="215" width="80" height="20" as="geometry" />
        </mxCell>
        <mxCell id="F7sfmkdwU6hLmO17Vx5Q-71" value="&lt;h1&gt;Editing the profile info&lt;/h1&gt;&lt;h1&gt;&lt;span style=&quot;font-size: 12px ; font-weight: normal&quot;&gt;edits fields like Mobile, Password, Email and Address.&lt;/span&gt;&lt;br&gt;&lt;/h1&gt;" style="text;html=1;strokeColor=#666666;fillColor=#f5f5f5;spacing=5;spacingTop=-20;whiteSpace=wrap;overflow=hidden;rounded=0;fontColor=#333333;" parent="1" vertex="1">
          <mxGeometry x="1850" y="-30" width="190" height="140" as="geometry" />
        </mxCell>
        <mxCell id="F7sfmkdwU6hLmO17Vx5Q-73" value="&lt;h1&gt;Submit Report&lt;/h1&gt;&lt;p&gt;Submits a report to admins&lt;/p&gt;" style="text;html=1;strokeColor=#666666;fillColor=#f5f5f5;spacing=5;spacingTop=-20;whiteSpace=wrap;overflow=hidden;rounded=0;fontSize=11;fontColor=#333333;" parent="1" vertex="1">
          <mxGeometry x="1841" y="-270" width="190" height="120" as="geometry" />
        </mxCell>
        <mxCell id="zYEk9CUFVOx2sm95j1ZI-3" style="edgeStyle=orthogonalEdgeStyle;rounded=0;orthogonalLoop=1;jettySize=auto;html=1;exitX=0.5;exitY=0;exitDx=0;exitDy=0;entryX=0.5;entryY=1;entryDx=0;entryDy=0;" edge="1" parent="1" source="zYEk9CUFVOx2sm95j1ZI-2" target="pWobMGOmHtMoMN1nDM7m-30">
          <mxGeometry relative="1" as="geometry">
            <Array as="points">
              <mxPoint x="1782" y="140" />
              <mxPoint x="2060" y="140" />
              <mxPoint x="2060" y="770" />
              <mxPoint x="525" y="770" />
            </Array>
          </mxGeometry>
        </mxCell>
        <mxCell id="zYEk9CUFVOx2sm95j1ZI-2" value="Edit main information" style="rounded=1;whiteSpace=wrap;html=1;" vertex="1" parent="1">
          <mxGeometry x="1740" y="166" width="84" height="30" as="geometry" />
        </mxCell>
      </root>
    </mxGraphModel>
  </diagram>
</mxfile>
